<svg width="24" height="25" viewBox="0 0 24 25" fill="none" xmlns="http://www.w3.org/2000/svg">
<path d="M21 6.9722H16V5.3022C15.9765 4.66202 15.7002 4.05726 15.2316 3.6205C14.7629 3.18373 14.1402 2.9506 13.5 2.9722H10.5C9.85976 2.9506 9.23706 3.18373 8.76843 3.6205C8.2998 4.05726 8.02346 4.66202 8 5.3022V6.9722H3C2.73478 6.9722 2.48043 7.07756 2.29289 7.2651C2.10536 7.45263 2 7.70699 2 7.9722C2 8.23742 2.10536 8.49177 2.29289 8.67931C2.48043 8.86685 2.73478 8.9722 3 8.9722H4V19.9722C4 20.7679 4.31607 21.5309 4.87868 22.0935C5.44129 22.6561 6.20435 22.9722 7 22.9722H17C17.7957 22.9722 18.5587 22.6561 19.1213 22.0935C19.6839 21.5309 20 20.7679 20 19.9722V8.9722H21C21.2652 8.9722 21.5196 8.86685 21.7071 8.67931C21.8946 8.49177 22 8.23742 22 7.9722C22 7.70699 21.8946 7.45263 21.7071 7.2651C21.5196 7.07756 21.2652 6.9722 21 6.9722ZM10 16.9722C10 17.2374 9.89464 17.4918 9.70711 17.6793C9.51957 17.8668 9.26522 17.9722 9 17.9722C8.73479 17.9722 8.48043 17.8668 8.29289 17.6793C8.10536 17.4918 8 17.2374 8 16.9722V12.9722C8 12.707 8.10536 12.4526 8.29289 12.2651C8.48043 12.0776 8.73479 11.9722 9 11.9722C9.26522 11.9722 9.51957 12.0776 9.70711 12.2651C9.89464 12.4526 10 12.707 10 12.9722V16.9722ZM10 5.3022C10 5.1422 10.21 4.9722 10.5 4.9722H13.5C13.79 4.9722 14 5.1422 14 5.3022V6.9722H10V5.3022ZM16 16.9722C16 17.2374 15.8946 17.4918 15.7071 17.6793C15.5196 17.8668 15.2652 17.9722 15 17.9722C14.7348 17.9722 14.4804 17.8668 14.2929 17.6793C14.1054 17.4918 14 17.2374 14 16.9722V12.9722C14 12.707 14.1054 12.4526 14.2929 12.2651C14.4804 12.0776 14.7348 11.9722 15 11.9722C15.2652 11.9722 15.5196 12.0776 15.7071 12.2651C15.8946 12.4526 16 12.707 16 12.9722V16.9722Z" fill="white"/>
</svg>
